# xmcd
#
# Track frame offsets:
#	150
#	12974
#	29011
#	44421
#	58595
#	98278
#	118503
#	136338
#	164649
#	185092
#	205103
#	221957
#	235975
#	256238
#	273093
#	298768
#	315458
#	342428
#
# Disc length: 4764 seconds
#
# Revision: 2
# Processed by: cddbd v1.5.2PL0 Copyright (c) Steve Scherf et al.
# Submitted via: EasyCDDAExtractor 16.1.0.1
#
DISCID=10129a12
DTITLE=The Allman Brothers Band - Collected [CD3]
DYEAR=2012
DGENRE=Blues
TTITLE0=The Allman Joys - Shapes Of Things
TTITLE1=The Allman Joys - Crossroads
TTITLE2=The Hour Glass - Cast Off All My Fears
TTITLE3=The Hour Glass - Ain't No Good To Cry
TTITLE4=Duane Allman - Goin Down Slow 
TTITLE5=Gregg Allman - Midnight Rider
TTITLE6=Gregg Allman - These Days
TTITLE7=Gregg Allman - Queen Of Hearts
TTITLE8=Richard Betts - Long Time Gone
TTITLE9=Richard Betts - Highway Call
TTITLE10=The Gregg Allman Band - Cryin' Shame
TTITLE11=The Gregg Allman Band - Brightest Smile In Town
TTITLE12=Dickey Betts and Great Southern - Good Time Feeling
TTITLE13=The Gregg Allman Band - I'm No Angel
TTITLE14=The Gregg Allman Band - It's Not My Cross To Bear
TTITLE15=The Gregg Allman Band - Before The Bullets Fly
TTITLE16=The Dickey Betts Band - Duane's Tune
TTITLE17=Gregg Allman - The Dark End Of The Street
EXTD=
EXTT0=
EXTT1=
EXTT2=
EXTT3=
EXTT4=
EXTT5=
EXTT6=
EXTT7=
EXTT8=
EXTT9=
EXTT10=
EXTT11=
EXTT12=
EXTT13=
EXTT14=
EXTT15=
EXTT16=
EXTT17=
PLAYORDER=
